trial_2_US.mot
nRows=116
nColumns=2

name trial_2_US.mot
datacolumns 2
datarows 116
range 3.610000 4.760000
endheader
time	med_gas_l
        3.6100000000	       77.6581633897	
        3.6200000000	       74.7206931615	
        3.6300000000	       74.2995534756	
        3.6400000000	       72.7538188652	
        3.6500000000	       69.9985155928	
        3.6600000000	       67.6373428653	
        3.6700000000	       67.3724996507	
        3.6800000000	       67.7371448919	
        3.6900000000	       67.4877906910	
        3.7000000000	       67.0001855675	
        3.7100000000	       67.1657751095	
        3.7200000000	       68.8067874555	
        3.7300000000	       71.4867113020	
        3.7400000000	       74.0153347495	
        3.7500000000	       74.8632080481	
        3.7600000000	       76.4237657287	
        3.7700000000	       81.5513413392	
        3.7800000000	       84.7955064986	
        3.7900000000	       83.6224765502	
        3.8000000000	       82.8904595156	
        3.8100000000	       83.5247933826	
        3.8200000000	       83.9228633456	
        3.8300000000	       84.1957592775	
        3.8400000000	       84.7050983901	
        3.8500000000	       85.4814961663	
        3.8600000000	       86.1250049520	
        3.8700000000	       86.1549965013	
        3.8800000000	       85.8086057041	
        3.8900000000	       85.4709009655	
        3.9000000000	       85.4412418249	
        3.9100000000	       85.6080584279	
        3.9200000000	       85.6579256071	
        3.9300000000	       85.5171476533	
        3.9400000000	       85.3118089019	
        3.9500000000	       85.3400270378	
        3.9600000000	       85.4077370574	
        3.9700000000	       85.1573809776	
        3.9800000000	       84.8869172285	
        3.9900000000	       84.8736244023	
        4.0000000000	       85.0997147719	
        4.0100000000	       85.4566392267	
        4.0200000000	       85.7701846726	
        4.0300000000	       85.7785280272	
        4.0400000000	       85.5432088758	
        4.0500000000	       85.6077875502	
        4.0600000000	       85.9214465763	
        4.0700000000	       86.0616597673	
        4.0800000000	       85.7707570279	
        4.0900000000	       85.1604724574	
        4.1000000000	       84.7976583373	
        4.1100000000	       84.6764654049	
        4.1200000000	       84.4784000727	
        4.1300000000	       84.2194587127	
        4.1400000000	       84.0578432594	
        4.1500000000	       84.1989592942	
        4.1600000000	       84.3745486627	
        4.1700000000	       84.1931978487	
        4.1800000000	       84.0072809698	
        4.1900000000	       84.3299290813	
        4.2000000000	       85.4134624891	
        4.2100000000	       84.9539313286	
        4.2200000000	       80.7115238423	
        4.2300000000	       77.2068809238	
        4.2400000000	       77.2921067270	
        4.2500000000	       78.5808647428	
        4.2600000000	       78.2353873201	
        4.2700000000	       74.7492657969	
        4.2800000000	       71.8929483204	
        4.2900000000	       71.7277912056	
        4.3000000000	       71.8205552841	
        4.3100000000	       71.8775050479	
        4.3200000000	       72.5675446940	
        4.3300000000	       71.9021897553	
        4.3400000000	       69.1544050049	
        4.3500000000	       66.4634874096	
        4.3600000000	       64.5791871210	
        4.3700000000	       63.4930147682	
        4.3800000000	       64.3733509251	
        4.3900000000	       67.1246729270	
        4.4000000000	       69.3755042548	
        4.4100000000	       70.3602250086	
        4.4200000000	       70.3490643302	
        4.4300000000	       69.1028191245	
        4.4400000000	       66.9492806733	
        4.4500000000	       65.2463564260	
        4.4600000000	       64.7686782540	
        4.4700000000	       65.7065433638	
        4.4800000000	       67.6471803318	
        4.4900000000	       69.7133111159	
        4.5000000000	       70.7857327237	
        4.5100000000	       72.6003848261	
        4.5200000000	       77.3745283710	
        4.5300000000	       81.8457632405	
        4.5400000000	       83.8263006450	
        4.5500000000	       84.8523507352	
        4.5600000000	       85.7074131398	
        4.5700000000	       86.4578409587	
        4.5800000000	       87.0872240644	
        4.5900000000	       88.0172825003	
        4.6000000000	       90.1405132588	
        4.6100000000	       91.6338489580	
        4.6200000000	       90.1374756217	
        4.6300000000	       88.2515451150	
        4.6400000000	       88.1130117981	
        4.6500000000	       89.1864784550	
        4.6600000000	       90.5942174855	
        4.6700000000	       91.5034497829	
        4.6800000000	       91.5614348693	
        4.6900000000	       91.0797193678	
        4.7000000000	       91.1204463720	
        4.7100000000	       91.7015530430	
        4.7200000000	       92.1979501411	
        4.7300000000	       92.2932081645	
        4.7400000000	       92.3542356176	
        4.7500000000	       93.4777529585	
        4.7600000000	       94.4114549800	
